<svg width="24" height="24" viewBox="0 0 24 24" fill="none" xmlns="http://www.w3.org/2000/svg">
<path d="M22.35 9.90002C22.9125 9.86252 23.3625 9.41252 23.3625 8.81252V6.75002C23.3625 5.47502 22.35 4.46252 21.0751 4.46252H2.96255C1.68755 4.46252 0.675049 5.47502 0.675049 6.75002V8.85002C0.675049 9.41252 1.12505 9.90002 1.68755 9.93752C2.73755 10.05 3.52505 10.95 3.52505 12.0375C3.52505 13.125 2.73755 14.025 1.68755 14.1C1.12505 14.1375 0.675049 14.625 0.675049 15.1875V17.25C0.675049 18.525 1.68755 19.5375 2.96255 19.5375H21.0751C22.35 19.5375 23.3625 18.525 23.3625 17.25V15.1875C23.3625 14.625 22.9125 14.1375 22.35 14.1C21.3 13.9875 20.5126 13.0875 20.5126 12C20.5126 10.875 21.3 9.97502 22.35 9.90002ZM21.675 15.675V17.25C21.675 17.5875 21.4125 17.85 21.0751 17.85H11.8875V15.825C11.8875 15.375 11.5125 14.9625 11.025 14.9625C10.5375 14.9625 10.1625 15.3375 10.1625 15.825V17.85H2.96255C2.62505 17.85 2.36255 17.5875 2.36255 17.25V15.75C4.01255 15.375 5.21255 13.875 5.21255 12.075C5.21255 10.3125 4.01255 8.77502 2.36255 8.36252V6.75002C2.36255 6.41252 2.62505 6.15002 2.96255 6.15002H10.2V8.17502C10.2 8.62502 10.575 9.03752 11.0625 9.03752C11.55 9.03752 11.925 8.66252 11.925 8.17502V6.15002H21.0751C21.4125 6.15002 21.675 6.41252 21.675 6.75002V8.28752C20.025 8.70002 18.8251 10.2 18.8251 12C18.8251 13.7625 20.025 15.2625 21.675 15.675Z" fill="black"/>
<path d="M11.0625 10.2001C10.6125 10.2001 10.2 10.5751 10.2 11.0626V12.9751C10.2 13.4251 10.575 13.8376 11.0625 13.8376C11.55 13.8376 11.925 13.4626 11.925 12.9751V11.0626C11.8875 10.5751 11.5125 10.2001 11.0625 10.2001Z" fill="black"/>
</svg>
