<svg width="24" height="24" viewBox="0 0 24 24" fill="none" xmlns="http://www.w3.org/2000/svg">
<path d="M20.9625 16.4625L20.85 16.3875C20.55 16.2 20.2125 16.05 19.425 15.825H19.3875C19.125 15.7875 18.825 15.675 18.7125 15.6L18.675 15.5625C18.525 15.4125 18.4125 15.15 18.4125 14.85C18.4125 14.5875 18.525 14.325 18.675 14.1375L20.1375 12.675C22.725 10.0875 22.725 6.00005 20.1375 3.37505C18.4125 1.61255 16.0125 0.675049 13.35 0.675049C10.3875 0.675049 7.3875 1.95005 5.1 4.20005C3 6.33755 1.875 9.11255 1.875 12.15C1.875 15.1875 3.0375 18 5.175 20.0625C7.3125 22.2 10.125 23.3625 13.125 23.3625C16.0875 23.3625 18.9 22.1625 21.0375 20.025C21.4875 19.5751 21.75 18.9 21.75 18.2626C21.75 17.55 21.45 16.875 20.9625 16.4625ZM19.8375 18.8251C18.0375 20.6625 15.6375 21.675 13.125 21.675C10.5375 21.675 8.2125 20.7 6.375 18.8625C4.575 17.1 3.5625 14.7375 3.5625 12.15C3.5625 9.56255 4.5375 7.23755 6.3375 5.40005C8.325 3.45005 10.875 2.32505 13.425 2.32505C15.6375 2.32505 17.5875 3.07505 19.0125 4.53755C20.9625 6.52505 20.9625 9.52505 19.0125 11.475L17.5125 12.975C17.0625 13.4625 16.8 14.1375 16.8 14.85C16.8 15.6 17.0625 16.2375 17.5125 16.725C17.9625 17.2125 18.8625 17.4375 19.0875 17.475C19.6125 17.5875 19.8 17.7001 19.95 17.775C20.025 17.8876 20.1 18.0751 20.1 18.2626C20.0625 18.4501 19.95 18.7125 19.8375 18.8251Z" fill="black"/>
<path d="M13.7998 13.7625C13.2748 13.7625 12.8623 14.175 12.8623 14.7C12.8623 15.225 13.2748 15.6375 13.7998 15.6375C14.3248 15.6375 14.7373 15.225 14.7373 14.7C14.7373 14.175 14.3248 13.7625 13.7998 13.7625Z" fill="black"/>
<path d="M17.8875 10.2375C17.8875 8.99995 16.875 7.94995 15.6 7.94995C14.325 7.94995 13.3125 8.96245 13.3125 10.2375C13.3125 11.475 14.325 12.525 15.6 12.525C16.875 12.525 17.8875 11.5125 17.8875 10.2375ZM15.6 10.8375C15.2625 10.8375 15 10.575 15 10.2375C15 9.89995 15.2625 9.63745 15.6 9.63745C15.9375 9.63745 16.2 9.89995 16.2 10.2375C16.2 10.575 15.9375 10.8375 15.6 10.8375Z" fill="black"/>
<path d="M13.9877 6.26265C13.9877 4.76265 12.7502 3.52515 11.2502 3.52515C9.7502 3.52515 8.5127 4.76265 8.5127 6.26265C8.5127 7.76265 9.7502 9.00015 11.2502 9.00015C12.7502 9.00015 13.9877 7.80015 13.9877 6.26265ZM11.2502 7.35015C10.6502 7.35015 10.2002 6.86265 10.2002 6.30015C10.2002 5.70015 10.6877 5.25015 11.2502 5.25015C11.8127 5.25015 12.3002 5.73765 12.3002 6.30015C12.3002 6.86265 11.8502 7.35015 11.2502 7.35015Z" fill="black"/>
</svg>
