<svg width="24" height="24" viewBox="0 0 24 24" fill="none" xmlns="http://www.w3.org/2000/svg">
<path d="M15.45 0.487549C13.65 0.487549 12.0375 1.57505 11.1 3.33755C10.425 3.00005 9.7125 2.81255 8.925 2.81255C5.85 2.77505 3.375 5.73755 3.375 9.37505C3.375 12.6375 5.4 16.2375 8.2125 16.7625C8.0625 17.175 7.95 17.5875 7.875 17.8125C7.6125 18.7125 7.8375 19.575 8.0625 20.3625C8.2875 21.225 8.4375 21.75 8.1375 22.2375C7.875 22.6125 7.9875 23.1375 8.3625 23.4C8.5125 23.5125 8.6625 23.55 8.8125 23.55C9.075 23.55 9.3375 23.4 9.525 23.175C10.275 22.05 9.9375 20.8875 9.675 19.95C9.525 19.35 9.3375 18.7875 9.4875 18.3375C9.5625 18.0375 9.8625 17.2125 10.0125 16.725C11.55 16.275 12.825 14.85 13.575 13.1625C13.8 13.275 13.9875 13.3875 14.2125 13.4625C14.2125 13.5 14.175 13.5375 14.175 13.575C13.9875 14.1 13.7625 14.7 13.6875 15C13.425 15.9 13.65 16.7625 13.875 17.55C14.1 18.4125 14.25 18.9375 13.95 19.425C13.6875 19.8 13.8 20.325 14.175 20.5875C14.325 20.7 14.475 20.7375 14.625 20.7375C14.8875 20.7375 15.15 20.5875 15.3375 20.3625C16.0875 19.2375 15.75 18.075 15.4875 17.1375C15.3375 16.5375 15.15 15.975 15.3 15.525C15.375 15.3 15.6 14.6625 15.75 14.2125C15.825 14.025 15.9 13.8375 15.9375 13.6875C16.125 13.65 16.275 13.6125 16.4625 13.575C19.0125 12.7875 20.5875 9.41255 20.5875 6.71255C20.625 3.22505 18.3 0.487549 15.45 0.487549ZM8.925 15.15C6.975 15.15 5.1 12.3 5.1 9.37505C5.1 6.67505 6.825 4.50005 8.925 4.50005C11.025 4.50005 12.75 6.67505 12.75 9.37505C12.75 12.2625 10.8375 15.15 8.925 15.15ZM16.0125 11.85C15.6375 11.9625 15.2625 11.9625 14.925 11.85C14.7 11.775 14.4375 11.6625 14.2125 11.475C14.4 10.8 14.475 10.0875 14.475 9.37505C14.475 7.35005 13.6875 5.55005 12.4875 4.35005C13.125 3.00005 14.25 2.17505 15.4875 2.17505C17.4 2.17505 18.975 4.16255 18.975 6.60005C18.9375 8.88755 17.55 11.3625 16.0125 11.85Z" fill="black"/>
</svg>
