<svg width="32" height="32" viewBox="0 0 32 32" fill="none" xmlns="http://www.w3.org/2000/svg">
<g clip-path="url(#clip0_14_35061)" filter="url(#filter0_d_14_35061)">
<path d="M26.5377 7.16245L20.8752 1.49995C19.7877 0.412451 18.0627 0.412451 16.9752 1.49995L11.5377 6.93745C10.6377 7.83745 10.1127 9.03745 10.1127 10.35C10.1127 11.3625 10.4127 12.3 10.9752 13.0875L5.4627 18.6C4.9377 19.125 4.6377 19.8 4.6377 20.5125C4.6377 21.2625 4.9377 21.975 5.4627 22.5C5.9877 23.025 6.7002 23.2875 7.4127 23.2875C8.1252 23.2875 8.8377 23.025 9.3627 22.5L14.8752 16.9874C15.7002 17.5875 16.6752 17.8875 17.6502 17.8875C18.8877 17.8875 20.1252 17.4375 21.0627 16.5L26.5002 11.0625C27.0252 10.5375 27.2877 9.86245 27.2877 9.11245C27.2877 8.36245 27.0627 7.68745 26.5377 7.16245ZM8.1627 21.2999C7.7502 21.7125 7.0752 21.7125 6.6627 21.2999C6.4752 21.1124 6.3627 20.8125 6.3627 20.5499C6.3627 20.2875 6.4752 20.025 6.6627 19.7999L12.1002 14.3625L13.6002 15.8625L8.1627 21.2999ZM15.4752 15.3L12.7377 12.5625C12.1377 11.9625 11.8377 11.175 11.8377 10.35C11.8377 9.52495 12.1752 8.73745 12.7377 8.13745L13.6752 7.19995L20.8377 14.3625L19.9002 15.3C18.6627 16.5 16.6752 16.5 15.4752 15.3ZM25.3377 9.86245L22.0002 13.2L14.8752 6.03745L18.2127 2.69995C18.6252 2.28745 19.3002 2.28745 19.7127 2.69995L25.3752 8.36245C25.5627 8.54995 25.6752 8.81245 25.6752 9.11245C25.6752 9.41245 25.5627 9.63745 25.3377 9.86245Z" fill="black"/>
<path d="M17.6504 13.1999C17.3129 12.8624 16.7879 12.8624 16.4504 13.1999C16.1129 13.5374 16.1129 14.0624 16.4504 14.3999C16.6004 14.5499 16.8254 14.6624 17.0504 14.6624C17.2754 14.6624 17.5004 14.5874 17.6504 14.3999C17.9879 14.0999 17.9879 13.5374 17.6504 13.1999Z" fill="black"/>
<path d="M14.7627 9.93745C14.4252 9.59995 13.9002 9.59995 13.5627 9.93745C13.2252 10.275 13.2252 10.8 13.5627 11.1375C13.7127 11.2875 13.9377 11.4 14.1627 11.4C14.3877 11.4 14.6127 11.325 14.7627 11.1375C15.1002 10.8375 15.1002 10.275 14.7627 9.93745Z" fill="black"/>
</g>
<defs>
<filter id="filter0_d_14_35061" x="0" y="0" width="32" height="32" filterUnits="userSpaceOnUse" color-interpolation-filters="sRGB">
<feFlood flood-opacity="0" result="BackgroundImageFix"/>
<feColorMatrix in="SourceAlpha" type="matrix" values="0 0 0 0 0 0 0 0 0 0 0 0 0 0 0 0 0 0 127 0" result="hardAlpha"/>
<feOffset dy="4"/>
<feGaussianBlur stdDeviation="2"/>
<feComposite in2="hardAlpha" operator="out"/>
<feColorMatrix type="matrix" values="0 0 0 0 0 0 0 0 0 0 0 0 0 0 0 0 0 0 0.25 0"/>
<feBlend mode="normal" in2="BackgroundImageFix" result="effect1_dropShadow_14_35061"/>
<feBlend mode="normal" in="SourceGraphic" in2="effect1_dropShadow_14_35061" result="shape"/>
</filter>
<clipPath id="clip0_14_35061">
<rect width="24" height="24" fill="white" transform="translate(4)"/>
</clipPath>
</defs>
</svg>
