<svg width="24" height="24" viewBox="0 0 24 24" fill="none" xmlns="http://www.w3.org/2000/svg">
<g clip-path="url(#clip0_14_34634)">
<path d="M22.4251 2.62496L21.3751 1.53746C20.7376 0.899961 19.8376 0.562461 18.9001 0.674961C18.0001 0.787461 17.1751 1.27496 16.6501 2.06246L15.4126 3.97496C13.0501 3.26246 10.3876 3.86246 8.51261 5.69996L5.62511 8.54996C4.31261 9.86246 3.60011 11.5875 3.60011 13.425C3.60011 14.1375 3.71261 14.8125 3.90011 15.45L2.02511 16.65C1.23761 17.1375 0.712607 17.9625 0.637607 18.9C0.525107 19.8375 0.862607 20.7375 1.50011 21.375L2.58761 22.4625C3.15011 23.025 3.93761 23.3625 4.72511 23.3625C4.83761 23.3625 4.95011 23.3625 5.02511 23.3625C5.92511 23.25 6.75011 22.7625 7.23761 22.0125L8.51261 20.1C9.15011 20.2875 9.82511 20.4 10.4626 20.4C12.2251 20.4 14.0251 19.725 15.3751 18.375L16.4251 17.325L18.2251 15.5625C19.5376 14.25 20.2501 12.525 20.2501 10.6875C20.2501 9.97496 20.1376 9.29996 19.9501 8.62496L21.7876 7.46246C22.5751 6.97496 23.1001 6.14996 23.2126 5.21246C23.3251 4.27496 23.1001 3.26246 22.4251 2.62496ZM5.92511 21.0375C5.70011 21.375 5.32511 21.6 4.91261 21.6375C4.50011 21.675 4.08761 21.525 3.82511 21.2625L2.73761 20.175C2.43761 19.875 2.28761 19.4625 2.36261 19.05C2.40011 18.6375 2.62511 18.3 3.00011 18.075L4.65011 17.025C4.95011 17.475 5.28761 17.925 5.66261 18.3375C6.07511 18.75 6.56261 19.0875 7.05011 19.3875L5.92511 21.0375ZM6.86261 17.1C5.88761 16.125 5.32511 14.8125 5.32511 13.425C5.32511 12.0375 5.88761 10.725 6.86261 9.74996L7.42511 9.18746C7.87511 9.44996 8.28761 9.56246 8.62511 9.59996C9.03761 9.67496 9.26261 9.71246 9.63761 10.0875C9.97511 10.425 10.0501 10.6875 10.1251 11.1C10.2376 11.5875 10.3501 12.2625 11.0626 12.975C11.7751 13.6875 12.4501 13.8375 12.9376 13.9125C13.3501 13.9875 13.5751 14.025 13.9501 14.4C14.2876 14.7375 14.3626 15 14.4376 15.4125C14.5126 15.75 14.5876 16.1625 14.8501 16.6125L14.2876 17.1375C12.2251 19.1625 8.92511 19.1625 6.86261 17.1ZM17.1376 14.25L16.1251 15.3C16.1251 15.225 16.0876 15.15 16.0876 15.075C15.9751 14.5875 15.8626 13.9125 15.1501 13.2C14.4376 12.4875 13.7626 12.3375 13.2751 12.2625C12.8626 12.1875 12.6376 12.15 12.2626 11.775C11.9251 11.4375 11.8501 11.175 11.7751 10.7625C11.6626 10.275 11.5501 9.59996 10.8376 8.88746C10.1251 8.17496 9.45011 8.02496 8.96261 7.94996C8.88761 7.94996 8.81261 7.91246 8.73761 7.91246L9.78761 6.89996C10.8001 5.88746 12.1501 5.36246 13.5001 5.36246C14.8501 5.36246 16.2001 5.88746 17.2126 6.89996C18.1876 7.87496 18.7501 9.18746 18.7501 10.575C18.7501 11.9625 18.1501 13.275 17.1376 14.25ZM21.6376 4.91246C21.6001 5.32496 21.3751 5.69996 21.0001 5.92496L19.3501 6.97496C19.0501 6.52496 18.7501 6.07496 18.3376 5.69996C17.9251 5.28746 17.4751 4.94996 16.9876 4.64996L18.0751 2.96246C18.3001 2.62496 18.6751 2.39996 19.0876 2.36246C19.5001 2.32496 19.9126 2.47496 20.1751 2.73746L21.2626 3.82496C21.5251 4.08746 21.6751 4.49996 21.6376 4.91246Z" fill="black"/>
</g>
<defs>
<clipPath id="clip0_14_34634">
<rect width="24" height="24" fill="white"/>
</clipPath>
</defs>
</svg>
