<svg width="24" height="24" viewBox="0 0 24 24" fill="none" xmlns="http://www.w3.org/2000/svg">
<g clip-path="url(#clip0_14_34227)">
<path d="M15.8251 11.1376H12.8251V8.1751C12.8251 7.7251 12.4501 7.3501 11.9626 7.3501C11.5126 7.3501 11.1376 7.7251 11.1376 8.2126V11.1751H8.1751C7.7251 11.1751 7.3501 11.5501 7.3501 12.0376C7.3501 12.4876 7.7251 12.8626 8.2126 12.8626H11.1751V15.8251C11.1751 16.2751 11.5501 16.6501 12.0376 16.6501C12.4876 16.6501 12.8626 16.2751 12.8626 15.7876V12.8251H15.8251C16.2751 12.8251 16.6501 12.4501 16.6501 11.9626C16.6501 11.5126 16.2751 11.1376 15.8251 11.1376Z" fill="black"/>
<path d="M12 0.675049C5.73755 0.675049 0.675049 5.73755 0.675049 12C0.675049 18.2626 5.77505 23.3625 12.0375 23.3625C18.3 23.3625 23.4 18.2626 23.4 12C23.3625 5.73755 18.2626 0.675049 12 0.675049ZM12 21.675C6.67505 21.675 2.36255 17.325 2.36255 12C2.36255 6.67505 6.67505 2.36255 12 2.36255C17.325 2.36255 21.675 6.67505 21.675 12C21.675 17.325 17.325 21.675 12 21.675Z" fill="black"/>
</g>
<defs>
<clipPath id="clip0_14_34227">
<rect width="24" height="24" fill="white"/>
</clipPath>
</defs>
</svg>
