<svg width="24" height="24" viewBox="0 0 24 24" fill="none" xmlns="http://www.w3.org/2000/svg">
<path d="M20.3252 9.63752C19.8377 9.63752 19.3502 9.75002 18.9377 9.97502C18.8627 8.77502 17.8502 7.83752 16.6502 7.83752H3.4877C2.2127 7.83752 1.2002 8.85002 1.2002 10.125V13.6875C1.2002 17.1375 3.4127 20.0625 6.4877 21.15H1.5002C1.0502 21.15 0.637695 21.525 0.637695 22.0125C0.637695 22.5 1.0127 22.875 1.5002 22.875H18.6752C19.1252 22.875 19.5377 22.5 19.5377 22.0125C19.5377 21.525 19.1627 21.15 18.6752 21.15H13.6502C15.8627 20.3625 17.5877 18.6375 18.4127 16.5C18.9377 16.9125 19.6127 17.175 20.3252 17.175C21.1502 17.175 21.9752 16.8375 22.5377 16.2375C23.1002 15.675 23.3627 14.925 23.3252 14.175V12.6375C23.3252 10.9875 22.0127 9.63752 20.3252 9.63752ZM17.2502 13.6875C17.2502 17.1375 14.4377 19.95 10.9877 19.95H9.1502C5.7002 19.95 2.8877 17.1375 2.8877 13.6875V10.125C2.8877 9.78752 3.1502 9.52502 3.4877 9.52502H16.6502C16.9877 9.52502 17.2502 9.78752 17.2502 10.125V13.6875ZM21.3377 15.1125C21.0752 15.375 20.7377 15.525 20.3627 15.525C19.6502 15.525 19.0502 14.925 19.0502 14.2125V12.675C19.0502 11.9625 19.6502 11.3625 20.3627 11.3625C21.0752 11.3625 21.6752 11.9625 21.6752 12.675V14.25C21.6752 14.55 21.5627 14.85 21.3377 15.1125Z" fill="black"/>
<path d="M5.175 6.1875C5.625 6.1875 6.0375 5.8125 6.0375 5.325V1.9875C6.0375 1.5375 5.6625 1.125 5.175 1.125C4.6875 1.125 4.3125 1.5 4.3125 1.9875V5.325C4.3125 5.8125 4.725 6.1875 5.175 6.1875Z" fill="black"/>
<path d="M10.0876 6.1875C10.5376 6.1875 10.9501 5.8125 10.9501 5.325V1.9875C10.9501 1.5375 10.5751 1.125 10.0876 1.125C9.6001 1.125 9.2251 1.5 9.2251 1.9875V5.325C9.2251 5.8125 9.6001 6.1875 10.0876 6.1875Z" fill="black"/>
<path d="M15.0002 6.1875C15.4502 6.1875 15.8627 5.8125 15.8627 5.325V1.9875C15.8627 1.5375 15.4877 1.125 15.0002 1.125C14.5127 1.125 14.1377 1.5 14.1377 1.9875V5.325C14.1377 5.8125 14.5127 6.1875 15.0002 6.1875Z" fill="black"/>
</svg>
