<svg width="24" height="24" viewBox="0 0 24 24" fill="none" xmlns="http://www.w3.org/2000/svg">
<path d="M21.1501 7.34998H20.2501L17.8125 1.19998C17.625 0.749976 17.1375 0.562476 16.725 0.712476C16.2751 0.899976 16.0876 1.38748 16.2375 1.79998L18.4125 7.34998H5.58755L7.76255 1.83748C7.95005 1.38748 7.72505 0.899976 7.27505 0.749976C6.86255 0.562476 6.37505 0.749976 6.18755 1.19998L3.75005 7.34998H2.85005C2.17505 7.34998 1.61255 7.91248 1.61255 8.58748V11.625C1.61255 12.2625 2.06255 12.75 2.70005 12.825L3.63755 21C3.78755 22.35 4.91255 23.3625 6.26255 23.3625H17.7376C19.0876 23.3625 20.2126 22.35 20.3626 21L21.3001 12.825C21.9001 12.75 22.3876 12.225 22.3876 11.625V8.54998C22.3876 7.87498 21.8251 7.34998 21.1501 7.34998ZM3.30005 9.03748H20.7001V11.175H3.30005V9.03748ZM17.7376 21.675H6.26255C5.77505 21.675 5.36255 21.3 5.28755 20.8125L4.38755 12.8625H19.6126L18.7126 20.8125C18.6376 21.3 18.225 21.675 17.7376 21.675Z" fill="black"/>
<path d="M8.175 14.55C7.725 14.55 7.3125 14.925 7.3125 15.4125V18.225C7.3125 18.675 7.6875 19.0875 8.175 19.0875C8.6625 19.0875 9.0375 18.7125 9.0375 18.225V15.375C9.0375 14.925 8.6625 14.55 8.175 14.55Z" fill="black"/>
<path d="M15.8251 14.55C15.3751 14.55 14.9626 14.925 14.9626 15.4125V18.225C14.9626 18.675 15.3376 19.0875 15.8251 19.0875C16.3126 19.0875 16.6876 18.7125 16.6876 18.225V15.375C16.6501 14.925 16.2751 14.55 15.8251 14.55Z" fill="black"/>
</svg>
