<svg width="24" height="24" viewBox="0 0 24 24" fill="none" xmlns="http://www.w3.org/2000/svg">
<path d="M22.65 2.17505C22.1625 1.68755 21.5625 1.42505 20.8875 1.42505C20.25 1.42505 19.65 1.68755 19.2 2.10005L5.81252 14.5125C5.36252 14.5125 4.87502 14.5875 4.35002 14.8125C3.48752 15.1875 3.11252 15.8625 2.73752 16.5C2.40002 17.1 2.02502 17.7375 1.16252 18.375C0.787522 18.675 0.600022 19.125 0.637522 19.5751C0.675022 20.025 0.937522 20.4375 1.35002 20.6625C3.07502 21.6 5.21252 22.5 7.01252 22.5C7.80002 22.5 8.51252 22.3125 9.11252 21.8625C9.97502 21.1875 10.425 20.325 10.425 19.3125C10.425 19.2375 10.425 19.2 10.425 19.125L22.6875 5.58755C23.5875 4.68755 23.55 3.11255 22.65 2.17505ZM8.10002 20.5875C7.27502 21.1875 5.13752 20.7375 2.58752 19.425C3.45002 18.675 3.86252 17.925 4.20002 17.3625C4.53752 16.8 4.68752 16.5375 5.02502 16.3875C5.88752 16.0125 6.60002 16.35 6.67502 16.425C7.68752 17.1375 8.70002 18.375 8.70002 19.425C8.73752 19.875 8.55002 20.25 8.10002 20.5875ZM21.45 4.50005L9.82502 17.325C9.30002 16.3875 8.47502 15.5625 7.72502 15.0375L20.3625 3.33755C20.6625 3.03755 21.15 3.03755 21.45 3.33755C21.7125 3.67505 21.75 4.20005 21.45 4.50005Z" fill="black"/>
</svg>
