<svg width="22" height="22" viewBox="0 0 22 22" fill="none" xmlns="http://www.w3.org/2000/svg">
<path d="M4.6 20.2001C2.61177 20.2001 1 18.5883 1 16.6001V4.6C1 2.61178 2.61177 1 4.6 1H16.6C18.5882 1 20.2 2.61177 20.2 4.6L20.2 16.6001C20.2 18.5883 18.5882 20.2001 16.6 20.2001H4.6Z" fill="#E73D18"/>
<path d="M13.9941 7.20589L10.6 10.6M10.6 10.6L7.20589 13.9941M10.6 10.6L13.9941 13.9941M10.6 10.6L7.20589 7.20589M20.2 4.6L20.2 16.6001C20.2 18.5883 18.5882 20.2001 16.6 20.2001H4.6C2.61177 20.2001 1 18.5883 1 16.6001V4.6C1 2.61178 2.61177 1 4.6 1H16.6C18.5882 1 20.2 2.61177 20.2 4.6Z" stroke="white" stroke-width="2" stroke-linecap="round"/>
</svg>
