<svg width="24" height="24" viewBox="0 0 24 24" fill="none" xmlns="http://www.w3.org/2000/svg">
<path d="M14.3998 11.4001L5.9248 2.7751C5.5873 2.4376 5.0623 2.4376 4.7248 2.7751C4.3873 3.1126 4.3873 3.6376 4.7248 3.9751L12.5998 12.0001L4.7248 20.0251C4.3873 20.3626 4.3873 20.8876 4.7248 21.2251C4.8748 21.3751 5.0998 21.4501 5.3248 21.4501C5.5498 21.4501 5.7748 21.3751 5.9248 21.1876L14.3998 12.5626C14.7373 12.2626 14.7373 11.7376 14.3998 11.4001Z" fill="black"/>
<path d="M19.2748 11.4001L10.7998 2.7751C10.4623 2.4376 9.9373 2.4376 9.5998 2.7751C9.2623 3.1126 9.2623 3.6376 9.5998 3.9751L17.4748 12.0001L9.5998 20.0251C9.2623 20.3626 9.2623 20.8876 9.5998 21.2251C9.7498 21.3751 9.9748 21.4501 10.1998 21.4501C10.4248 21.4501 10.6498 21.3751 10.7998 21.1876L19.2748 12.5626C19.6123 12.2626 19.6123 11.7376 19.2748 11.4001Z" fill="black"/>
</svg>
