<svg width="22" height="24" viewBox="0 0 22 24" fill="none" xmlns="http://www.w3.org/2000/svg">
<path d="M6.44693 20.19C5.92299 20.3646 5.63983 20.9309 5.81448 21.4549C5.98912 21.9788 6.55544 22.262 7.07939 22.0873L6.44693 20.19ZM12.9939 21.554L12.9032 20.5582L12.9939 21.554ZM16.7324 20.7233L17.171 21.622L16.7324 20.7233ZM20.3046 17.4737L19.5275 16.8443L19.5275 16.8443L20.3046 17.4737ZM17.8614 15.4404L18.5685 16.1475L17.8614 15.4404ZM16.2162 17.0856L16.9233 17.7927L16.2162 17.0856ZM11.7478 16.8156C11.1955 16.8156 10.7478 17.2633 10.7478 17.8156C10.7478 18.3679 11.1955 18.8156 11.7478 18.8156V16.8156ZM19.9247 15.2361L19.37 16.0682L19.9247 15.2361ZM8.02757 14.6911L8.47479 15.5855L8.47479 15.5855L8.02757 14.6911ZM12.4991 14.282L12.7622 13.3173L12.4991 14.282ZM14.2453 14.7583L13.9822 15.723L14.2453 14.7583ZM14.7986 16.8417L14.0915 16.1346L14.7986 16.8417ZM13.1176 17.1085C12.7271 17.499 12.7271 18.1322 13.1176 18.5227C13.5081 18.9132 14.1413 18.9132 14.5318 18.5227L13.1176 17.1085ZM7.07939 22.0873C7.19614 22.0484 7.44749 22.0202 7.89923 22.0524C8.33055 22.0832 8.83451 22.1587 9.41184 22.2494C10.5077 22.4215 11.8947 22.6583 13.0847 22.5499L12.9032 20.5582C12.0162 20.639 10.9109 20.4604 9.72217 20.2736C9.15719 20.1849 8.57077 20.0952 8.04151 20.0575C7.53268 20.0212 6.95325 20.0212 6.44693 20.19L7.07939 22.0873ZM13.0847 22.5499C13.8486 22.4803 14.5008 22.4472 15.1015 22.3385C15.7529 22.2206 16.3636 22.016 17.171 21.622L16.2938 19.8246C15.6145 20.1561 15.1797 20.2918 14.7454 20.3704C14.2604 20.4582 13.7868 20.4777 12.9032 20.5582L13.0847 22.5499ZM17.171 21.622C17.9544 21.2396 18.71 20.6232 19.3591 19.9995C20.0178 19.3666 20.616 18.6781 21.0817 18.1031L19.5275 16.8443C19.093 17.3807 18.5522 18.0013 17.9734 18.5573C17.385 19.1227 16.8045 19.5753 16.2938 19.8246L17.171 21.622ZM17.1543 14.7333L15.5091 16.3785L16.9233 17.7927L18.5685 16.1475L17.1543 14.7333ZM14.4539 16.8156H11.7478V18.8156H14.4539V16.8156ZM15.5091 16.3785C15.2292 16.6584 14.8497 16.8156 14.4539 16.8156V18.8156C15.3801 18.8156 16.2684 18.4476 16.9233 17.7927L15.5091 16.3785ZM20.4794 14.4041C19.4342 13.7073 18.0425 13.8451 17.1543 14.7333L18.5685 16.1475C18.7826 15.9334 19.1181 15.9002 19.37 16.0682L20.4794 14.4041ZM21.0817 18.1031C22.0544 16.902 21.6881 15.2098 20.4794 14.4041L19.37 16.0682C19.6769 16.2727 19.7011 16.6299 19.5275 16.8443L21.0817 18.1031ZM2.19393 14.6617H5.517V12.6617H2.19393V14.6617ZM5.34777 14.4925V21.9694H7.34777V14.4925H5.34777ZM5.517 21.8002H2.19393V23.8002H5.517V21.8002ZM2.36316 21.9694V14.4925H0.363159V21.9694H2.36316ZM2.19393 21.8002C2.28739 21.8002 2.36316 21.876 2.36316 21.9694H0.363159C0.363159 22.9805 1.18282 23.8002 2.19393 23.8002V21.8002ZM5.34777 21.9694C5.34777 21.876 5.42354 21.8002 5.517 21.8002V23.8002C6.52811 23.8002 7.34777 22.9805 7.34777 21.9694H5.34777ZM5.517 14.6617C5.42354 14.6617 5.34777 14.586 5.34777 14.4925H7.34777C7.34777 13.4814 6.52811 12.6617 5.517 12.6617V14.6617ZM2.19393 12.6617C1.18282 12.6617 0.363159 13.4814 0.363159 14.4925H2.36316C2.36316 14.586 2.28739 14.6617 2.19393 14.6617V12.6617ZM7.21037 16.2177L8.47479 15.5855L7.58036 13.7966L6.31595 14.4288L7.21037 16.2177ZM10.6283 15.0771H10.969V13.0771H10.6283V15.0771ZM12.236 15.2468L13.9822 15.723L14.5084 13.7935L12.7622 13.3173L12.236 15.2468ZM14.0915 16.1346L13.1176 17.1085L14.5318 18.5227L15.5057 17.5488L14.0915 16.1346ZM13.9822 15.723C14.1645 15.7728 14.2251 16.0009 14.0915 16.1346L15.5057 17.5488C16.7252 16.3293 16.1723 14.2473 14.5084 13.7935L13.9822 15.723ZM10.969 15.0771C11.397 15.0771 11.8231 15.1342 12.236 15.2468L12.7622 13.3173C12.1778 13.1579 11.5748 13.0771 10.969 13.0771V15.0771ZM8.47479 15.5855C9.14343 15.2512 9.88073 15.0771 10.6283 15.0771V13.0771C9.57024 13.0771 8.52671 13.3235 7.58036 13.7966L8.47479 15.5855ZM16.1478 7.84635C16.1478 9.12935 15.1077 10.1694 13.8247 10.1694V12.1694C16.2123 12.1694 18.1478 10.2339 18.1478 7.84635H16.1478ZM13.8247 10.1694C12.5417 10.1694 11.5016 9.12935 11.5016 7.84635H9.50162C9.50162 10.2339 11.4371 12.1694 13.8247 12.1694V10.1694ZM11.5016 7.84635C11.5016 6.56335 12.5417 5.52327 13.8247 5.52327V3.52327C11.4371 3.52327 9.50162 5.45878 9.50162 7.84635H11.5016ZM13.8247 5.52327C15.1077 5.52327 16.1478 6.56335 16.1478 7.84635H18.1478C18.1478 5.45878 16.2123 3.52327 13.8247 3.52327V5.52327ZM10.5016 6.84635C9.21862 6.84635 8.17854 5.80627 8.17854 4.52327H6.17854C6.17854 6.91084 8.11405 8.84635 10.5016 8.84635V6.84635ZM8.17854 4.52327C8.17854 3.24027 9.21862 2.2002 10.5016 2.2002V0.200195C8.11405 0.200195 6.17854 2.1357 6.17854 4.52327H8.17854ZM10.5016 2.2002C11.7846 2.2002 12.8247 3.24027 12.8247 4.52327H14.8247C14.8247 2.1357 12.8892 0.200195 10.5016 0.200195V2.2002Z" fill="black"/>
</svg>
