<svg width="24" height="24" viewBox="0 0 24 24" fill="none" xmlns="http://www.w3.org/2000/svg">
<path d="M21.1502 23.3625H16.2377C15.0377 23.3625 14.0252 22.3875 14.0252 21.15V17.175C14.0252 16.875 13.8002 16.65 13.5002 16.65H10.5002C10.2002 16.65 9.9752 16.875 9.9752 17.175V21.15C9.9752 22.3875 9.0002 23.3625 7.7627 23.3625H2.8502C1.6502 23.3625 0.637695 22.3875 0.637695 21.15V8.5125C0.637695 7.875 0.937695 7.3125 1.4627 6.975L11.0252 0.9375C11.6252 0.5625 12.3752 0.5625 12.9377 0.9375L22.5002 7.0125C23.0252 7.35 23.3252 7.9125 23.3252 8.55V21.15C23.3627 22.35 22.3502 23.3625 21.1502 23.3625ZM10.5002 14.9625H13.5002C14.7377 14.9625 15.7127 15.9375 15.7127 17.175V21.15C15.7127 21.45 15.9377 21.675 16.2377 21.675H21.1502C21.4502 21.675 21.6752 21.45 21.6752 21.15V8.5125C21.6752 8.475 21.6377 8.4375 21.6377 8.4L12.0377 2.3625C12.0002 2.325 11.9627 2.325 11.9252 2.3625L2.4002 8.4C2.3627 8.4375 2.3252 8.475 2.3252 8.5125V21.15C2.3252 21.45 2.5502 21.675 2.8502 21.675H7.7627C8.0627 21.675 8.2877 21.45 8.2877 21.15V17.175C8.2877 15.975 9.2627 14.9625 10.5002 14.9625Z" fill="black"/>
</svg>
