<svg width="24" height="24" viewBox="0 0 24 24" fill="none" xmlns="http://www.w3.org/2000/svg">
<path d="M9.82491 23.325C9.59991 23.325 9.37491 23.25 9.14991 23.1375C8.77491 22.9125 8.58741 22.5375 8.58741 22.125V10.2L2.02491 2.58745C1.76241 2.21245 1.68741 1.72495 1.87491 1.31245C2.06241 0.899951 2.51241 0.637451 2.99991 0.637451H20.9999C21.4874 0.637451 21.9374 0.937451 22.1249 1.38745C22.3124 1.83745 22.2374 2.28745 21.8999 2.66245L15.4499 10.1625V18.9C15.4499 19.125 15.3749 19.4625 15.0374 19.7999L14.9624 19.875L10.4624 23.2125C10.2749 23.2875 10.0499 23.325 9.82491 23.325ZM10.0124 9.22495C10.1999 9.44995 10.3124 9.78745 10.3124 10.0125V21.225L13.7999 18.6375V10.0125C13.7999 9.82495 13.7999 9.48745 14.0999 9.18745L19.9499 2.36245H4.04991L10.0124 9.22495Z" fill="black"/>
</svg>
