<svg width="24" height="24" viewBox="0 0 24 24" fill="none" xmlns="http://www.w3.org/2000/svg">
<path d="M22.275 9.41255C21.5625 8.70005 20.55 8.25005 19.5375 8.25005H12.825V2.47505C12.825 2.02505 12.45 1.61255 11.9625 1.61255C11.475 1.61255 11.1 1.98755 11.1 2.47505V8.28755H4.50005C2.40005 8.28755 0.675049 9.97505 0.675049 12.075V18.6C0.675049 20.7 2.40005 22.3876 4.50005 22.3876C6.41255 22.3876 7.98755 21 8.28755 19.2375H15.7875C16.0875 21.0375 17.6625 22.425 19.5751 22.425C21.675 22.425 23.4 20.7375 23.4 18.6376V12.075C23.3625 11.1 22.9875 10.1625 22.275 9.41255ZM21.6376 18.6C21.6376 19.7625 20.7 20.7001 19.5 20.7001C18.3 20.7001 17.3625 19.7625 17.3625 18.6C17.3625 18 16.875 17.5125 16.275 17.5125H7.72505C7.12505 17.5125 6.63755 18 6.63755 18.6C6.63755 19.725 5.66255 20.6625 4.50005 20.6625C3.30005 20.6625 2.36255 19.725 2.36255 18.5625V12.075C2.36255 10.9125 3.33755 9.97505 4.50005 9.97505H19.5375C20.1 9.97505 20.6625 10.2 21.0751 10.6125C21.4501 10.9875 21.675 11.5125 21.675 12.075V18.6H21.6376Z" fill="black"/>
<path d="M7.91255 13.0501H7.08755V12.2626C7.08755 11.8126 6.71255 11.4001 6.22505 11.4001C5.73755 11.4001 5.36255 11.7751 5.36255 12.2626V13.0501H4.53755C4.08755 13.0501 3.67505 13.4251 3.67505 13.9126C3.67505 14.4001 4.05005 14.7751 4.53755 14.7751H5.36255V15.5626C5.36255 16.0126 5.73755 16.4251 6.22505 16.4251C6.71255 16.4251 7.08755 16.0501 7.08755 15.5626V14.7751H7.91255C8.36255 14.7751 8.77505 14.4001 8.77505 13.9126C8.77505 13.4251 8.36255 13.0501 7.91255 13.0501Z" fill="black"/>
<path d="M18.375 13.125C18.45 13.125 18.4875 13.125 18.525 13.125C18.5625 13.125 18.6375 13.0875 18.675 13.0875C18.7125 13.05 18.7875 13.05 18.825 13.0125C18.8625 12.975 18.9 12.9375 18.9375 12.9C19.0875 12.75 19.2 12.525 19.2 12.3C19.2 12.075 19.125 11.85 18.9375 11.7C18.9 11.6625 18.8625 11.625 18.825 11.5875C18.7875 11.55 18.7125 11.55 18.675 11.5125C18.6375 11.475 18.5625 11.475 18.525 11.475C18.2625 11.4375 17.9625 11.5125 17.775 11.7C17.625 11.85 17.5125 12.075 17.5125 12.3C17.5125 12.525 17.5875 12.75 17.775 12.9C17.925 13.0125 18.15 13.125 18.375 13.125Z" fill="black"/>
<path d="M17.3251 13.3125C17.2876 13.275 17.2501 13.2375 17.2126 13.2C17.1751 13.1625 17.1001 13.1625 17.0626 13.125C17.0251 13.0875 16.9501 13.0875 16.9126 13.0875C16.6501 13.05 16.3501 13.125 16.1626 13.3125C16.0126 13.4625 15.9001 13.6875 15.9001 13.9125C15.9001 14.1375 15.9751 14.3625 16.1626 14.5125C16.2376 14.5875 16.3501 14.6625 16.4251 14.7C16.5376 14.7375 16.6501 14.775 16.7626 14.775C16.8376 14.775 16.8751 14.775 16.9126 14.775C16.9876 14.775 17.0251 14.7375 17.0626 14.7375C17.1001 14.7375 17.1751 14.7 17.2126 14.6625C17.2501 14.625 17.2876 14.5875 17.3251 14.55C17.4751 14.4 17.5876 14.175 17.5876 13.95C17.5876 13.6875 17.4751 13.4625 17.3251 13.3125Z" fill="black"/>
<path d="M17.775 15.1125C17.625 15.2625 17.5125 15.4875 17.5125 15.7125C17.5125 15.9375 17.5875 16.1625 17.775 16.3125C17.8125 16.35 17.85 16.3875 17.8875 16.425C17.925 16.4625 18 16.5 18.0375 16.5C18.075 16.5375 18.15 16.5375 18.1875 16.5375C18.225 16.5375 18.3 16.5375 18.3375 16.5375C18.4125 16.5375 18.45 16.5375 18.4875 16.5375C18.525 16.5375 18.6 16.5 18.6375 16.5C18.675 16.4625 18.75 16.4625 18.7875 16.425C18.825 16.3875 18.8625 16.35 18.9 16.3125C19.05 16.1625 19.1625 15.9375 19.1625 15.7125C19.1625 15.4875 19.0875 15.2625 18.9 15.1125C18.675 14.775 18.1125 14.775 17.775 15.1125Z" fill="black"/>
<path d="M20.775 13.575C20.7375 13.5375 20.7375 13.4625 20.7 13.425C20.6625 13.3875 20.625 13.35 20.5875 13.3125C20.4 13.125 20.1 13.0125 19.8375 13.0875C19.8 13.0875 19.725 13.125 19.6875 13.125C19.65 13.125 19.575 13.1625 19.5375 13.2C19.5 13.2375 19.4625 13.275 19.425 13.3125C19.3875 13.35 19.35 13.3875 19.3125 13.425C19.275 13.4625 19.2375 13.5375 19.2375 13.575C19.2 13.6125 19.2 13.6875 19.2 13.725C19.2 13.7625 19.2 13.8375 19.2 13.875C19.2 14.1 19.275 14.325 19.4625 14.475C19.6125 14.625 19.8375 14.7375 20.0625 14.7375C20.2875 14.7375 20.5125 14.6625 20.6625 14.475C20.8125 14.325 20.925 14.1 20.925 13.875C20.925 13.8375 20.925 13.7625 20.925 13.725C20.8125 13.6875 20.8125 13.65 20.775 13.575Z" fill="black"/>
</svg>
