<svg width="24" height="24" viewBox="0 0 24 24" fill="none" xmlns="http://www.w3.org/2000/svg">
<path d="M13.9126 17.925C12.4126 17.925 11.2126 19.125 11.2126 20.625C11.2126 22.125 12.4126 23.325 13.9126 23.325C15.4126 23.325 16.6126 22.125 16.6126 20.625C16.6126 19.1625 15.3751 17.925 13.9126 17.925ZM13.9126 21.675C13.3501 21.675 12.9001 21.225 12.9001 20.6625C12.9001 20.1 13.3501 19.65 13.9126 19.65C14.4751 19.65 14.9251 20.1 14.9251 20.6625C14.9251 21.1875 14.4376 21.675 13.9126 21.675Z" fill="black"/>
<path d="M6.78765 17.925C5.28765 17.925 4.08765 19.125 4.08765 20.625C4.08765 22.125 5.28765 23.325 6.78765 23.325C8.28765 23.325 9.48765 22.125 9.48765 20.625C9.48765 19.1625 8.25015 17.925 6.78765 17.925ZM6.78765 21.675C6.22515 21.675 5.77515 21.225 5.77515 20.6625C5.77515 20.1 6.22515 19.65 6.78765 19.65C7.35015 19.65 7.80015 20.1 7.80015 20.6625C7.80015 21.1875 7.35015 21.675 6.78765 21.675Z" fill="black"/>
<path d="M21.825 0.675049H19.8C18.9 0.675049 18.1125 1.35005 18 2.25005L17.4 6.56255H2.58754C2.21254 6.56255 1.83754 6.75005 1.57504 7.05005C1.35004 7.35005 1.23754 7.76255 1.35004 8.13755C1.35004 8.17505 1.35004 8.17505 1.35004 8.21255L3.67504 15.225C3.82504 15.75 4.31254 16.125 4.87504 16.125H15.225C16.6125 16.125 17.8125 15.075 18 13.6875L19.575 2.47505C19.575 2.40005 19.65 2.36255 19.725 2.36255H21.75C22.2 2.36255 22.6125 1.98755 22.6125 1.50005C22.6125 1.01255 22.275 0.675049 21.825 0.675049ZM16.3875 13.425C16.3125 13.9875 15.825 14.4 15.2625 14.4H5.21254L3.18754 8.25005H17.1375L16.3875 13.425Z" fill="black"/>
</svg>
