<svg width="24" height="24" viewBox="0 0 24 24" fill="none" xmlns="http://www.w3.org/2000/svg">
<path d="M21.4874 17.1751V5.70005C21.4874 4.50005 20.4374 3.56255 19.1624 3.56255C18.9374 3.56255 18.7124 3.60005 18.5249 3.63755V3.18755C18.5249 1.98755 17.4749 1.05005 16.1999 1.05005C15.7499 1.05005 15.2999 1.16255 14.9624 1.38755C14.5499 0.937549 13.9124 0.675049 13.2374 0.675049C12.2624 0.675049 11.3999 1.23755 11.0624 2.02505C10.7999 1.91255 10.5374 1.87505 10.2374 1.87505C8.9624 1.87505 7.9124 2.85005 7.9124 4.01255V12.1125L7.4249 11.5126C6.5624 10.3876 4.9874 10.0125 3.7499 10.6875C3.1499 11.0251 2.6999 11.5876 2.5499 12.2626C2.3999 12.9376 2.5499 13.6501 2.9999 14.2501L6.3749 18.7126C6.5624 18.9376 6.7124 19.2001 6.8999 19.4251C7.4249 20.1751 7.9874 21.0001 8.7749 21.6376C10.2749 22.8751 12.2999 23.3251 14.2124 23.3251C15.1499 23.3251 16.0124 23.2126 16.8374 23.0626C21.5249 22.0501 21.5249 18.5251 21.4874 17.1751ZM16.4624 21.4125C14.5124 21.8251 11.5874 21.8251 9.8624 20.3626C9.2624 19.8376 8.7749 19.1625 8.2874 18.4501C8.0999 18.1876 7.9124 17.9251 7.7249 17.6625L4.3499 13.2001C4.1999 13.0126 4.1624 12.7875 4.1999 12.6C4.2374 12.4125 4.3499 12.2626 4.5374 12.1501C5.0249 11.8876 5.7374 12.0751 6.0749 12.5251L6.1124 12.5625L8.1374 14.9626C8.3624 15.2251 8.7374 15.3376 9.0749 15.225C9.4124 15.1125 9.6374 14.7751 9.6374 14.4376V4.01255C9.6374 3.78755 9.9374 3.56255 10.2749 3.56255C10.6124 3.56255 10.9124 3.78755 10.9124 4.01255V10.6125C10.9124 11.0625 11.2874 11.475 11.7749 11.475C12.2624 11.475 12.5999 11.1 12.5999 10.6125V2.77505C12.5999 2.51255 12.8999 2.32505 13.2374 2.32505C13.5749 2.32505 13.8749 2.55005 13.8749 2.81255V10.9125C13.8749 11.3625 14.2499 11.7751 14.7374 11.7751C15.2249 11.7751 15.5999 11.4001 15.5999 10.9125V3.18755C15.5999 2.96255 15.8999 2.73755 16.2374 2.73755C16.5749 2.73755 16.8749 2.96255 16.8749 3.18755V11.6625C16.8749 12.1125 17.2499 12.5251 17.7374 12.5251C18.2249 12.5251 18.5999 12.1501 18.5999 11.6625V5.66255C18.6374 5.43755 18.8999 5.25005 19.2374 5.25005C19.5749 5.25005 19.8749 5.47505 19.8749 5.70005V17.0625V17.2126C19.8374 18.9001 19.5749 20.7376 16.4624 21.4125Z" fill="#030104"/>
</svg>
