<svg width="24" height="24" viewBox="0 0 24 24" fill="none" xmlns="http://www.w3.org/2000/svg">
<path d="M20.5498 5.5125C18.8623 2.325 15.5998 0.375 11.9998 0.375C8.39981 0.375 5.1373 2.325 3.4498 5.5125C2.7373 6.825 2.3998 8.175 2.3623 9.6C2.3623 9.6 2.3623 9.6 2.3623 9.6375V9.7125C2.3623 9.825 2.3998 9.9375 2.4373 10.0125C3.2998 11.8875 5.62481 13.3125 8.62481 13.95L7.9873 19.95C7.8748 20.8875 8.17481 21.825 8.81231 22.5375C9.44981 23.25 10.3498 23.625 11.2873 23.625H12.7498C13.6873 23.625 14.6248 23.2125 15.2248 22.5C15.8623 21.7875 16.1623 20.85 16.0498 19.9125L15.4123 13.95C18.3748 13.3125 20.6998 11.8875 21.5623 10.0125C21.5998 9.9 21.6373 9.7875 21.6373 9.675C21.5998 8.2125 21.2248 6.7875 20.5498 5.5125ZM14.5873 20.0625C14.6623 20.5875 14.4748 21.1125 14.1373 21.4875C13.7623 21.9 13.2748 22.125 12.7498 22.125H11.2873C10.7623 22.125 10.2748 21.9 9.93731 21.525C9.59981 21.15 9.41231 20.625 9.48731 20.1L10.1248 14.175C10.7248 14.25 11.3623 14.2875 12.0373 14.2875C12.7123 14.2875 13.3498 14.25 13.9873 14.175L14.5873 20.0625ZM11.9998 12.7875C8.24981 12.7875 4.8748 11.4375 3.8623 9.525C3.8998 8.3625 4.1998 7.275 4.7998 6.1875C6.1873 3.525 8.96231 1.875 11.9998 1.875C15.0373 1.875 17.8123 3.525 19.1998 6.225C19.7623 7.275 20.0623 8.4 20.0998 9.5625C19.1248 11.4375 15.7498 12.7875 11.9998 12.7875Z" fill="black"/>
<path d="M11.8499 3.33758C11.8124 3.33758 11.7749 3.37508 11.6999 3.37508C11.6624 3.37508 11.6249 3.41258 11.5499 3.45008C11.5124 3.48758 11.4749 3.48758 11.4374 3.52508C11.2874 3.67508 11.2124 3.86258 11.2124 4.05008C11.2124 4.23758 11.2874 4.42508 11.4374 4.57508C11.5874 4.72508 11.7749 4.80008 11.9624 4.80008C12.1499 4.80008 12.3374 4.72508 12.4874 4.57508C12.6374 4.42508 12.7124 4.23758 12.7124 4.05008C12.7124 3.86258 12.6374 3.67508 12.4874 3.52508C12.3374 3.33758 12.1124 3.26258 11.8499 3.33758Z" fill="black"/>
<path d="M7.725 8.1376C7.575 8.2876 7.5 8.4751 7.5 8.6626C7.5 8.8501 7.575 9.0751 7.725 9.1876C7.875 9.3376 8.0625 9.4126 8.25 9.4126C8.4375 9.4126 8.625 9.3376 8.775 9.1876C8.925 9.0376 9 8.8501 9 8.6626C9 8.4751 8.925 8.2876 8.775 8.1376C8.5125 7.8376 8.025 7.8376 7.725 8.1376Z" fill="black"/>
<path d="M16.575 8.36238C16.575 8.32488 16.5375 8.28738 16.5 8.24988C16.4625 8.21238 16.4625 8.17488 16.425 8.13738C16.2375 7.94988 16.0125 7.87488 15.75 7.94988C15.7125 7.94988 15.675 7.98738 15.6 7.98738C15.5625 8.02488 15.525 8.02488 15.4875 8.06238C15.45 8.09988 15.4125 8.13738 15.375 8.13738C15.3375 8.17488 15.3 8.21238 15.3 8.24988C15.2625 8.28738 15.2625 8.32488 15.225 8.36238C15.1875 8.39988 15.1875 8.43738 15.1875 8.51238C15.1875 8.54988 15.1875 8.62488 15.1875 8.66238C15.1875 8.69988 15.1875 8.77488 15.1875 8.81238C15.1875 8.84988 15.225 8.88738 15.225 8.96238C15.225 8.99988 15.2625 9.03738 15.3 9.11238C15.3375 9.14988 15.3375 9.18738 15.375 9.22488C15.525 9.37488 15.7125 9.44988 15.9 9.44988C16.0875 9.44988 16.275 9.37488 16.425 9.22488C16.4625 9.18738 16.5 9.14988 16.5 9.11238C16.5375 9.07488 16.5375 9.03738 16.575 8.96238C16.575 8.92488 16.6125 8.88738 16.6125 8.81238C16.6125 8.77488 16.6125 8.69988 16.6125 8.66238C16.6125 8.62488 16.6125 8.54988 16.6125 8.51238C16.6125 8.47488 16.6125 8.39988 16.575 8.36238Z" fill="black"/>
</svg>
