<svg width="24" height="24" viewBox="0 0 24 24" fill="none" xmlns="http://www.w3.org/2000/svg">
<path d="M22.5749 0.825053C22.3874 0.675053 22.1249 0.600053 21.8624 0.675053L8.3249 3.63755C7.9499 3.71255 7.6499 4.05005 7.6499 4.46255V15.9376C6.9749 15.4501 6.1124 15.1501 5.2124 15.1501C2.9249 15.1501 1.0874 16.9876 1.0874 19.2751C1.0874 21.5626 2.9249 23.4001 5.2124 23.4001C7.4999 23.4001 9.3374 21.5626 9.3374 19.2751V10.9126L21.2249 8.32505V13.6126C20.5499 13.1251 19.6874 12.8251 18.7874 12.8251C16.4999 12.8251 14.6624 14.6626 14.6624 16.9501C14.6624 19.2376 16.4999 21.0751 18.7874 21.0751C21.0749 21.0751 22.9124 19.2376 22.9124 16.9501V1.50005C22.9124 1.23755 22.7999 1.01255 22.5749 0.825053ZM5.2124 21.6751C3.8624 21.6751 2.7749 20.5876 2.7749 19.2376C2.7749 17.8876 3.8624 16.8001 5.2124 16.8001C6.5624 16.8001 7.6499 17.8876 7.6499 19.2376C7.6499 20.5876 6.5624 21.6751 5.2124 21.6751ZM9.3374 5.13755L21.2249 2.55005V6.60005L9.3374 9.18755V5.13755ZM18.7874 19.3501C17.4374 19.3501 16.3499 18.2626 16.3499 16.9126C16.3499 15.5626 17.4374 14.4751 18.7874 14.4751C20.1374 14.4751 21.2249 15.5626 21.2249 16.9126C21.2249 18.2626 20.1374 19.3501 18.7874 19.3501Z" fill="black"/>
</svg>
