<svg width="24" height="24" viewBox="0 0 24 24" fill="none" xmlns="http://www.w3.org/2000/svg">
<g clip-path="url(#clip0_14_34257)">
<path d="M12 0.675049C5.73755 0.675049 0.675049 5.73755 0.675049 12C0.675049 18.2626 5.73755 23.3625 12 23.3625C18.2626 23.3625 23.3625 18.2626 23.3625 12C23.3625 5.73755 18.2626 0.675049 12 0.675049ZM12 21.675C6.67505 21.675 2.36255 17.325 2.36255 12C2.36255 6.67505 6.67505 2.36255 12 2.36255C17.325 2.36255 21.675 6.71255 21.675 12.0375C21.675 17.325 17.325 21.675 12 21.675Z" fill="black"/>
<path d="M12.675 4.53754C11.5875 4.35004 10.4625 4.65004 9.63745 5.36254C8.81245 6.07504 8.32495 7.08754 8.32495 8.21254C8.32495 8.62504 8.39995 9.03754 8.54995 9.45004C8.69995 9.90004 9.18745 10.125 9.63745 9.97504C10.0875 9.82504 10.3125 9.33754 10.1625 8.88754C10.0875 8.66254 10.05 8.43754 10.05 8.21254C10.05 7.61254 10.3125 7.05004 10.7625 6.67504C11.2125 6.30004 11.8125 6.11254 12.45 6.22504C13.2375 6.37504 13.9125 7.05004 14.0625 7.83754C14.2125 8.77504 13.725 9.71254 12.8625 10.0875C11.8875 10.5 11.25 11.475 11.25 12.6V14.925C11.25 15.375 11.625 15.7875 12.1125 15.7875C12.5625 15.7875 12.975 15.4125 12.975 14.925V12.6C12.975 12.1875 13.2 11.8125 13.5375 11.6625C15.15 10.9875 16.0875 9.30004 15.7875 7.57504C15.375 6.03754 14.175 4.80004 12.675 4.53754Z" fill="black"/>
<path d="M12.0375 17.175H11.925C11.475 17.175 11.0625 17.55 11.0625 18.0375C11.0625 18.525 11.4375 18.9 11.925 18.9H12.0375C12.4875 18.9 12.8625 18.525 12.8625 18.0375C12.8625 17.55 12.525 17.175 12.0375 17.175Z" fill="black"/>
</g>
<defs>
<clipPath id="clip0_14_34257">
<rect width="24" height="24" fill="white"/>
</clipPath>
</defs>
</svg>
