<svg width="24" height="24" viewBox="0 0 24 24" fill="none" xmlns="http://www.w3.org/2000/svg">
<g clip-path="url(#clip0_14_35364)">
<path d="M23.2499 13.6125C22.4249 11.025 20.6249 8.2875 18.1874 5.8125C15.7124 3.375 12.9749 1.575 10.3874 0.750003C9.37494 0.412503 8.28743 0.937503 7.87493 1.95L0.787435 20.625C0.487435 21.375 0.674935 22.2 1.23743 22.7625C1.61243 23.1375 2.13743 23.3625 2.66243 23.3625C2.88743 23.3625 3.14993 23.325 3.37493 23.2125L15.7124 18.525H15.7499L22.0499 16.125C23.0624 15.7125 23.5874 14.625 23.2499 13.6125ZM2.77493 21.6375C2.58743 21.7125 2.47493 21.6375 2.43743 21.5625C2.39993 21.525 2.28743 21.375 2.36243 21.225L3.71243 17.625C4.16243 18.2625 4.91244 18.675 5.73743 18.675C7.08743 18.675 8.21243 17.5875 8.21243 16.2C8.21243 14.85 7.12493 13.725 5.73743 13.725C5.54993 13.725 5.36243 13.7625 5.17493 13.8L7.76243 7.0125C8.06243 7.2 8.39993 7.425 8.73743 7.65C8.24993 8.1 7.94993 8.7375 7.94993 9.45C7.94993 10.8 9.03743 11.925 10.4249 11.925C11.3249 11.925 12.1124 11.4375 12.5624 10.6875C14.1374 12.1875 15.7124 13.9875 17.0624 16.1625L16.6874 16.3125C16.5374 15.075 15.4874 14.1375 14.2499 14.1375C12.8999 14.1375 11.7749 15.225 11.7749 16.6125C11.7749 17.1375 11.9249 17.625 12.2249 18.0375L2.77493 21.6375ZM4.94993 16.2375C4.94993 15.825 5.28744 15.45 5.73743 15.45C6.14993 15.45 6.52493 15.7875 6.52493 16.2375C6.52493 16.65 6.18743 17.025 5.73743 17.025C5.32493 17.025 4.94993 16.65 4.94993 16.2375ZM10.1999 8.775C10.4999 9.0375 10.8374 9.2625 11.1749 9.5625C11.1749 9.975 10.8374 10.3125 10.3874 10.3125C9.97493 10.3125 9.59993 9.975 9.59993 9.525C9.59993 9.15 9.86243 8.85 10.1999 8.775ZM13.9499 17.4C13.6499 17.2875 13.4249 17.025 13.4249 16.65C13.4249 16.2375 13.7624 15.8625 14.2124 15.8625C14.6249 15.8625 14.9999 16.2 14.9999 16.65C14.9999 16.8 14.9624 16.9125 14.8874 17.025L13.9499 17.4ZM21.4499 14.5125L18.5999 15.6C16.7999 12.6375 14.6624 10.275 12.5249 8.475C12.4874 8.475 12.4874 8.4375 12.4499 8.4375C11.9249 7.9875 11.3999 7.575 10.9124 7.2C10.0124 6.525 9.18743 5.9625 8.36243 5.475L9.44993 2.5875C9.48743 2.475 9.63743 2.3625 9.74993 2.3625C9.78743 2.3625 9.82493 2.3625 9.86243 2.3625C12.1499 3.075 14.7374 4.7625 16.9499 7.0125C19.1624 9.225 20.8874 11.85 21.5999 14.1C21.7124 14.2875 21.5999 14.475 21.4499 14.5125Z" fill="black"/>
</g>
<defs>
<clipPath id="clip0_14_35364">
<rect width="24" height="24" fill="white"/>
</clipPath>
</defs>
</svg>
