<svg width="149" height="98" viewBox="0 0 149 98" fill="none" xmlns="http://www.w3.org/2000/svg">
<path d="M0.681824 36.8182V0.818172H4.56819V4.97726H5.04546C5.34091 4.52272 5.75001 3.94317 6.27273 3.23863C6.80682 2.52272 7.56819 1.88636 8.55682 1.32954C9.55682 0.761355 10.9091 0.477264 12.6136 0.477264C14.8182 0.477264 16.7614 1.0284 18.4432 2.13067C20.125 3.23295 21.4375 4.79545 22.3807 6.81817C23.3239 8.8409 23.7955 11.2273 23.7955 13.9773C23.7955 16.75 23.3239 19.1534 22.3807 21.1875C21.4375 23.2102 20.1307 24.7784 18.4602 25.892C16.7898 26.9943 14.8636 27.5454 12.6818 27.5454C11 27.5454 9.65342 27.267 8.64205 26.7102C7.63069 26.142 6.85228 25.5 6.30682 24.7841C5.76137 24.0568 5.34091 23.4545 5.04546 22.9773H4.70455V36.8182H0.681824ZM4.63637 13.9091C4.63637 15.8864 4.92614 17.6307 5.50569 19.142C6.08523 20.642 6.93182 21.8182 8.04546 22.6704C9.1591 23.5114 10.5227 23.9318 12.1364 23.9318C13.8182 23.9318 15.2216 23.4886 16.3466 22.6023C17.483 21.7045 18.3352 20.5 18.9034 18.9886C19.483 17.4659 19.7727 15.7727 19.7727 13.9091C19.7727 12.0682 19.4886 10.4091 18.9205 8.93181C18.3636 7.44317 17.5171 6.26704 16.3807 5.4034C15.2557 4.5284 13.8409 4.0909 12.1364 4.0909C10.5 4.0909 9.12501 4.50567 8.01137 5.33522C6.89773 6.1534 6.05682 7.30113 5.48864 8.7784C4.92046 10.2443 4.63637 11.9545 4.63637 13.9091Z" fill="black"/>
<path d="M33.9546 12.0909V47H29.9318V12.0909H33.9546Z" fill="black"/>
<path d="M57.8224 46.2954V30.8182H61.8452V57H57.8224V52.5682H57.5497C56.9361 53.8977 55.9815 55.0284 54.6861 55.9602C53.3906 56.8807 51.7543 57.3409 49.777 57.3409C48.1406 57.3409 46.6861 56.9829 45.4134 56.267C44.1406 55.5398 43.1406 54.4489 42.4134 52.9943C41.6861 51.5284 41.3224 49.6818 41.3224 47.4545V30.8182H45.3452V47.1818C45.3452 49.0909 45.8793 50.6136 46.9474 51.75C48.027 52.8864 49.402 53.4545 51.0724 53.4545C52.0724 53.4545 53.0895 53.1989 54.1236 52.6875C55.169 52.1761 56.044 51.392 56.7486 50.3352C57.4645 49.2784 57.8224 47.9318 57.8224 46.2954Z" fill="black"/>
<path d="M73.2358 51.25V67H69.2131V40.8182H73.0994V44.9091H73.4403C74.054 43.5795 74.9858 42.5114 76.2358 41.7045C77.4858 40.8864 79.0994 40.4773 81.0767 40.4773C82.8494 40.4773 84.4006 40.8409 85.7301 41.5682C87.0597 42.2841 88.0938 43.375 88.8324 44.8409C89.571 46.2954 89.9403 48.1364 89.9403 50.3636V67H85.9176V50.6364C85.9176 48.5795 85.3835 46.9773 84.3153 45.8295C83.2472 44.6704 81.7813 44.0909 79.9176 44.0909C78.6335 44.0909 77.4858 44.3693 76.4744 44.9261C75.4744 45.4829 74.6847 46.2954 74.1051 47.3636C73.5256 48.4318 73.2358 49.7273 73.2358 51.25Z" fill="black"/>
<path d="M107.859 87.3636C105.916 87.3636 104.246 87.1136 102.848 86.6136C101.45 86.125 100.286 85.4773 99.3537 84.6704C98.4332 83.875 97.7003 83.0227 97.1548 82.1136L100.359 79.8636C100.723 80.3409 101.183 80.8864 101.74 81.5C102.297 82.125 103.058 82.6648 104.024 83.1193C105.001 83.5852 106.28 83.8182 107.859 83.8182C109.973 83.8182 111.717 83.3068 113.092 82.2841C114.467 81.2614 115.155 79.6591 115.155 77.4773V72.1591H114.814C114.518 72.6364 114.098 73.2273 113.553 73.9318C113.018 74.625 112.246 75.2443 111.234 75.7898C110.234 76.3239 108.882 76.5909 107.178 76.5909C105.064 76.5909 103.166 76.0909 101.484 75.0909C99.8139 74.0909 98.4901 72.6364 97.5128 70.7273C96.5469 68.8182 96.0639 66.5 96.0639 63.7727C96.0639 61.0909 96.5355 58.7557 97.4787 56.767C98.4219 54.767 99.7344 53.2216 101.416 52.1307C103.098 51.0284 105.041 50.4773 107.246 50.4773C108.95 50.4773 110.303 50.7614 111.303 51.3295C112.314 51.8864 113.087 52.5227 113.621 53.2386C114.166 53.9432 114.587 54.5227 114.882 54.9773H115.291V50.8182H119.178V77.75C119.178 80 118.666 81.8295 117.643 83.2386C116.632 84.6591 115.268 85.6989 113.553 86.3579C111.848 87.0284 109.95 87.3636 107.859 87.3636ZM107.723 72.9773C109.337 72.9773 110.7 72.6079 111.814 71.8693C112.928 71.1307 113.774 70.0682 114.354 68.6818C114.933 67.2954 115.223 65.6364 115.223 63.7045C115.223 61.8182 114.939 60.1534 114.371 58.7102C113.803 57.267 112.962 56.1364 111.848 55.3182C110.734 54.5 109.359 54.0909 107.723 54.0909C106.018 54.0909 104.598 54.5227 103.462 55.3864C102.337 56.25 101.49 57.4091 100.922 58.8636C100.365 60.3182 100.087 61.9318 100.087 63.7045C100.087 65.5227 100.371 67.1307 100.939 68.5284C101.518 69.9148 102.371 71.0057 103.496 71.8011C104.632 72.5852 106.041 72.9773 107.723 72.9773Z" fill="black"/>
<path d="M137.518 97.5454C134.996 97.5454 132.82 96.9886 130.99 95.875C129.172 94.75 127.768 93.1818 126.78 91.1704C125.803 89.1477 125.314 86.7955 125.314 84.1136C125.314 81.4318 125.803 79.0682 126.78 77.0227C127.768 74.9659 129.143 73.3636 130.905 72.2159C132.678 71.0568 134.746 70.4773 137.109 70.4773C138.473 70.4773 139.82 70.7045 141.149 71.1591C142.479 71.6136 143.689 72.3523 144.78 73.375C145.871 74.3864 146.74 75.7273 147.388 77.3977C148.036 79.0682 148.359 81.125 148.359 83.5682V85.2727H128.178V81.7954H144.268C144.268 80.3182 143.973 79 143.382 77.8409C142.803 76.6818 141.973 75.767 140.893 75.0966C139.825 74.4261 138.564 74.0909 137.109 74.0909C135.507 74.0909 134.121 74.4886 132.95 75.2841C131.791 76.0682 130.899 77.0909 130.274 78.3523C129.649 79.6136 129.337 80.9659 129.337 82.4091V84.7273C129.337 86.7045 129.678 88.3807 130.359 89.7557C131.053 91.1193 132.013 92.1591 133.24 92.875C134.467 93.5795 135.893 93.9318 137.518 93.9318C138.575 93.9318 139.53 93.7841 140.382 93.4886C141.246 93.1818 141.99 92.7273 142.615 92.125C143.24 91.5114 143.723 90.75 144.064 89.8409L147.95 90.9318C147.541 92.25 146.854 93.4091 145.888 94.4091C144.922 95.3977 143.729 96.1704 142.308 96.7273C140.888 97.2727 139.291 97.5454 137.518 97.5454Z" fill="black"/>
</svg>
