<svg width="24" height="24" viewBox="0 0 24 24" fill="none" xmlns="http://www.w3.org/2000/svg">
<g clip-path="url(#clip0_14_34245)">
<path d="M22.4999 11.1749H12.8624V1.49995C12.8624 1.04995 12.4874 0.637451 12 0.637451C11.5499 0.637451 11.1375 1.01245 11.1375 1.49995V11.1749H1.49995C1.04995 11.1749 0.637451 11.5499 0.637451 12.0374C0.637451 12.4874 1.01245 12.9 1.49995 12.9H11.1749V22.4999C11.1749 22.9499 11.5499 23.3624 12.0374 23.3624C12.4874 23.3624 12.9 22.9874 12.9 22.4999V12.8624H22.4999C22.9499 12.8624 23.3624 12.4874 23.3624 12C23.3624 11.5499 22.9499 11.1749 22.4999 11.1749Z" fill="black"/>
</g>
<defs>
<clipPath id="clip0_14_34245">
<rect width="24" height="24" fill="white"/>
</clipPath>
</defs>
</svg>
