<svg width="24" height="24" viewBox="0 0 24 24" fill="none" xmlns="http://www.w3.org/2000/svg">
<path d="M17.1379 0.675049H15.9379C15.1879 0.675049 14.5879 1.27505 14.5879 2.02505V21.4875C14.5879 22.5375 15.4129 23.3625 16.4629 23.3625H17.5129C18.5629 23.3625 19.3879 22.5375 19.3879 21.4875V13.9875H19.9504C20.7004 13.9875 21.3004 13.3875 21.3004 12.6375V4.80005C21.2629 2.51255 19.3879 0.675049 17.1379 0.675049ZM17.5129 21.675H16.4629C16.3504 21.675 16.2754 21.6 16.2754 21.4875V13.9875H17.7004V21.45C17.7004 21.5625 17.5879 21.675 17.5129 21.675ZM19.6129 12.3H16.2754V2.36255H17.1379C18.4879 2.36255 19.6129 3.48755 19.6129 4.83755V12.3Z" fill="black"/>
<path d="M10.1627 0.750024C9.7127 0.750024 9.3002 1.12502 9.3002 1.61252V6.90002H7.6877V1.57502C7.6877 1.12502 7.3127 0.712524 6.8252 0.712524C6.3377 0.712524 6.0002 1.12502 6.0002 1.57502V6.86252H4.3877V1.57502C4.3877 1.12502 4.0127 0.712524 3.5252 0.712524C3.0377 0.712524 2.7002 1.12502 2.7002 1.57502V9.67502C2.7002 10.7625 3.4502 11.6625 4.5002 11.925V21.4875C4.5002 22.5375 5.3252 23.3625 6.3752 23.3625H7.3877C8.4377 23.3625 9.2627 22.5375 9.2627 21.4875V11.925C10.2752 11.7 11.0252 10.7625 11.0252 9.71252V1.57502C10.9877 1.12502 10.6127 0.750024 10.1627 0.750024ZM7.3502 21.675H6.3377C6.2252 21.675 6.1502 21.6 6.1502 21.4875V11.9625H7.5377V21.45C7.5377 21.5625 7.4627 21.675 7.3502 21.675ZM8.7002 10.275H4.9877C4.6502 10.275 4.3877 10.0125 4.3877 9.67502V8.55002H9.3002V9.67502C9.3002 10.0125 9.0377 10.275 8.7002 10.275Z" fill="black"/>
</svg>
