<svg width="24" height="24" viewBox="0 0 24 24" fill="none" xmlns="http://www.w3.org/2000/svg">
<g clip-path="url(#clip0_14_34561)">
<path d="M22.6501 18.8626L18.2626 14.5126C17.8126 14.0626 17.2126 13.8001 16.5751 13.8001C16.1251 13.8001 15.7126 13.9126 15.3376 14.1376L13.3876 12.1876C14.3626 10.9501 14.9251 9.4126 14.9251 7.7626C14.9251 5.8501 14.1751 4.0501 12.8251 2.7001C11.4751 1.3501 9.6751 0.600098 7.7626 0.600098C5.8501 0.600098 4.0501 1.3501 2.7001 2.7001C1.3501 4.0501 0.600098 5.8501 0.600098 7.7626C0.600098 9.6751 1.3501 11.4751 2.7001 12.8251C4.0501 14.1751 5.8501 14.9251 7.7626 14.9251C9.3751 14.9251 10.9126 14.4001 12.1876 13.3876L14.1376 15.3376C13.9126 15.7126 13.8001 16.1251 13.8001 16.5751C13.8001 17.2126 14.0626 17.8126 14.5126 18.2626L18.8626 22.6126C19.3126 23.0626 19.9126 23.3251 20.5501 23.3251C21.1876 23.3251 21.7876 23.0626 22.2376 22.6126L22.6501 22.2001C23.1001 21.7501 23.3626 21.1501 23.3626 20.5126C23.3626 19.9126 23.1001 19.3126 22.6501 18.8626ZM3.9376 11.6626C2.9251 10.6501 2.3251 9.2626 2.3251 7.8001C2.3251 6.3376 2.8876 4.9876 3.9376 3.9376C4.9876 2.8876 6.3376 2.3251 7.8001 2.3251C9.2626 2.3251 10.6126 2.8876 11.6626 3.9376C12.7126 4.9876 13.2751 6.3376 13.2751 7.8001C13.2751 9.2626 12.7126 10.6126 11.6626 11.6626C10.6126 12.7126 9.2626 13.2751 7.8001 13.2751C6.3376 13.2751 4.9876 12.6751 3.9376 11.6626ZM21.4501 21.0376L21.0376 21.4501C20.7751 21.7126 20.3251 21.7126 20.0251 21.4501L15.6751 17.1001C15.4126 16.8376 15.4126 16.3876 15.6751 16.0876L16.0876 15.6751C16.2376 15.5251 16.3876 15.4876 16.5751 15.4876C16.7626 15.4876 16.9501 15.5626 17.0626 15.6751L21.4126 20.0251C21.5626 20.1751 21.6001 20.3251 21.6001 20.5126C21.6751 20.7376 21.6001 20.9251 21.4501 21.0376Z" fill="black"/>
<path d="M9.26265 4.76265C8.92515 5.10015 8.92515 5.62515 9.26265 5.96265C10.1626 6.86265 10.1626 8.36265 9.26265 9.26265C8.92515 9.60015 8.92515 10.1251 9.26265 10.4626C9.41265 10.6126 9.63765 10.7251 9.86265 10.7251C10.0876 10.7251 10.3126 10.6501 10.4626 10.4626C11.2126 9.71265 11.6251 8.70015 11.6251 7.61265C11.6251 6.52515 11.2126 5.55015 10.4626 4.76265C10.1251 4.42515 9.56265 4.42515 9.26265 4.76265Z" fill="black"/>
</g>
<defs>
<clipPath id="clip0_14_34561">
<rect width="24" height="24" fill="white"/>
</clipPath>
</defs>
</svg>
