<svg width="24" height="24" viewBox="0 0 24 24" fill="none" xmlns="http://www.w3.org/2000/svg">
<path d="M16.95 10.2749C17.4 10.2749 17.775 9.89993 17.775 9.44993C17.775 8.99993 17.4375 8.58743 16.95 8.58743L15.3375 8.51243L14.775 7.08743C14.625 6.63743 14.1375 6.44993 13.6875 6.59993C13.2375 6.74993 13.05 7.27493 13.2 7.68743L13.95 9.63743C14.0625 9.93743 14.3625 10.1624 14.7 10.1624L16.95 10.2749C16.95 10.2749 16.9125 10.2749 16.95 10.2749Z" fill="black"/>
<path d="M23.2876 9.48745C23.1751 9.07495 22.8001 8.81245 22.3876 8.81245L20.1751 8.73745C19.7251 8.69995 19.3126 9.07495 19.3126 9.56245C19.3126 10.0124 19.6501 10.4249 20.1376 10.4249H20.4001L19.2751 11.2874C18.9001 11.5499 18.8251 12.1124 19.1251 12.4874C19.2751 12.7124 19.5376 12.8249 19.8001 12.8249C19.9876 12.8249 20.1376 12.7874 20.3251 12.6374L23.0251 10.6124C23.2876 10.3124 23.4376 9.86245 23.2876 9.48745Z" fill="black"/>
<path d="M17.2875 12.7125L15.975 13.6875C15.7125 13.9125 15.5625 14.25 15.675 14.5875L16.125 16.1625C16.2375 16.5375 16.575 16.7625 16.95 16.7625C17.025 16.7625 17.1 16.7625 17.175 16.725C17.625 16.575 17.8875 16.125 17.7375 15.675L17.4375 14.6625L18.3 14.025C18.675 13.7625 18.75 13.2 18.45 12.825C18.1875 12.525 17.6625 12.45 17.2875 12.7125Z" fill="black"/>
<path d="M18.7501 19.0875C18.6376 18.6375 18.1501 18.375 17.7001 18.525C17.2501 18.675 16.9876 19.125 17.1376 19.575L17.2126 19.8375L16.1626 19.125C15.7876 18.8625 15.2626 18.975 15.0001 19.3875C14.7376 19.7625 14.8501 20.2875 15.2626 20.55L17.8876 22.2375C18.0376 22.35 18.2251 22.3875 18.4126 22.3875C18.6376 22.3875 18.8251 22.3125 19.0126 22.2C19.3501 21.9375 19.5001 21.525 19.3501 21.15L18.7501 19.0875Z" fill="black"/>
<path d="M14.2501 17.9251L12.4501 16.7626C12.4501 16.7626 12.4501 16.7626 12.4126 16.7626C12.3751 16.7251 12.3001 16.6876 12.2251 16.6876H12.1876C12.1126 16.6876 12.0376 16.6501 11.9626 16.6501H11.9251C11.8501 16.6501 11.8126 16.6501 11.7376 16.6876H11.7001C11.6251 16.725 11.5501 16.7251 11.5126 16.7626L6.7501 19.8001L8.3251 14.6251C8.4376 14.2875 8.2876 13.9125 8.0251 13.725L3.6376 10.425L9.2626 10.2001C9.6001 10.2001 9.9001 9.97505 10.0126 9.67505L12.0001 4.53755L12.1876 5.06255C12.3001 5.40005 12.6376 5.58755 12.9751 5.58755C13.0876 5.58755 13.1626 5.58755 13.2751 5.51255C13.7251 5.36255 13.9126 4.83755 13.7626 4.42505L12.9376 2.25005C12.7876 1.87505 12.4126 1.61255 12.0001 1.61255C11.5876 1.61255 11.2126 1.87505 11.0626 2.25005L8.6251 8.55005L1.6126 8.81255C1.2001 8.81255 0.825098 9.11255 0.712598 9.48755C0.600098 9.86255 0.712598 10.3126 1.0501 10.5751L6.5626 14.7375L4.6876 21.1501C4.5751 21.5626 4.7251 21.9751 5.0251 22.2001C5.2126 22.3501 5.4001 22.3876 5.6251 22.3876C5.8126 22.3876 6.0001 22.35 6.1501 22.2376L12.0001 18.4876L13.3501 19.35C13.5001 19.4251 13.6501 19.5 13.8001 19.5C14.0626 19.5 14.3626 19.35 14.5126 19.125C14.7751 18.7126 14.6626 18.1875 14.2501 17.9251Z" fill="black"/>
</svg>
