<svg width="24" height="24" viewBox="0 0 24 24" fill="none" xmlns="http://www.w3.org/2000/svg">
<path d="M17.2123 14.025H15.3373C14.5873 14.025 13.9873 14.625 13.9873 15.375V17.25C13.9873 18 14.5873 18.6 15.3373 18.6H17.2123C17.9623 18.6 18.5623 18 18.5623 17.25V15.375C18.5623 14.625 17.9623 14.025 17.2123 14.025ZM16.8748 16.875H15.7123V15.7125H16.8748V16.875Z" fill="black"/>
<path d="M22.3873 7.72505V7.27505C22.3873 7.12505 22.3498 6.97505 22.2748 6.86255L19.4248 1.83755C19.0123 1.12505 18.2623 0.675049 17.4373 0.675049H6.5623C5.7373 0.675049 4.9873 1.12505 4.5748 1.83755L1.7248 6.86255C1.7248 6.86255 1.7248 6.86255 1.7248 6.90005C1.7248 6.93755 1.6873 6.97505 1.6873 7.01255C1.6498 7.08755 1.6123 7.20005 1.6123 7.31255V21.1125C1.6123 22.3875 2.6248 23.4 3.8998 23.4H20.0623C21.3373 23.4 22.3498 22.3875 22.3498 21.1125L22.3873 7.72505ZM11.0998 8.10005C10.9498 8.77505 10.3123 9.26255 9.5998 9.26255C8.8873 9.26255 8.2873 8.77505 8.0998 8.10005H11.0998ZM6.0373 2.66255C6.14981 2.47505 6.33731 2.36255 6.5623 2.36255H17.4373C17.6623 2.36255 17.8498 2.47505 17.9623 2.66255L20.0623 6.41255H3.9373L6.0373 2.66255ZM20.6248 8.10005C20.4748 8.77505 19.8748 9.26255 19.1248 9.26255C18.4123 9.26255 17.8123 8.77505 17.6248 8.10005H20.6248ZM15.8623 8.10005C15.7123 8.77505 15.1123 9.26255 14.3623 9.26255C13.6123 9.26255 13.0498 8.77505 12.8623 8.10005H15.8623ZM6.33731 8.10005C6.1873 8.77505 5.5873 9.26255 4.8373 9.26255C4.1248 9.26255 3.5248 8.77505 3.3373 8.10005H6.33731ZM7.1248 21.675V15.8625C7.1248 15.7875 7.1998 15.7125 7.27481 15.7125H9.07481C9.14981 15.7125 9.2248 15.7875 9.2248 15.8625V21.6376H7.1248V21.675ZM20.0998 21.675H10.9498V15.8625C10.9498 14.85 10.1248 14.025 9.11231 14.025H7.3123C6.29981 14.025 5.47481 14.85 5.47481 15.8625V21.6376H3.9373C3.5998 21.6376 3.3373 21.375 3.3373 21.0375V10.5375C3.7873 10.8 4.3123 10.9125 4.8748 10.9125C5.8123 10.9125 6.6748 10.5 7.27481 9.86255C7.8748 10.5 8.69981 10.9125 9.67481 10.9125C10.6123 10.9125 11.4748 10.5 12.0748 9.86255C12.6748 10.5 13.4998 10.9125 14.4748 10.9125C15.4123 10.9125 16.2748 10.5 16.8748 9.86255C17.4748 10.5 18.2998 10.9125 19.2748 10.9125C19.8373 10.9125 20.3623 10.7625 20.8123 10.5375V21.0375C20.6998 21.375 20.3998 21.675 20.0998 21.675Z" fill="black"/>
</svg>
