<svg width="24" height="24" viewBox="0 0 24 24" fill="none" xmlns="http://www.w3.org/2000/svg">
<path d="M20.9999 1.42505H2.99995C1.72495 1.42505 0.637451 2.47505 0.637451 3.78755V15.1125C0.637451 16.3875 1.68745 17.475 2.99995 17.475H8.88745L7.94995 20.925H6.26245C5.81245 20.925 5.39995 21.3 5.39995 21.7875C5.39995 22.275 5.77495 22.65 6.26245 22.65H17.6999C18.15 22.65 18.5625 22.275 18.5625 21.7875C18.5625 21.3 18.1875 20.925 17.6999 20.925H16.0125L15.075 17.475H20.9999C22.275 17.475 23.3624 16.425 23.3624 15.1125V3.78755C23.3624 2.47505 22.275 1.42505 20.9999 1.42505ZM14.325 20.8876H9.67495L10.6124 17.4375H13.3499L14.325 20.8876ZM21.6749 15.075C21.6749 15.45 21.3749 15.75 20.9999 15.75H2.99995C2.62495 15.75 2.32495 15.45 2.32495 15.075V3.78755C2.32495 3.41255 2.62495 3.11255 2.99995 3.11255H20.9999C21.3749 3.11255 21.6749 3.41255 21.6749 3.78755V15.075Z" fill="black"/>
</svg>
