<svg width="24" height="24" viewBox="0 0 24 24" fill="none" xmlns="http://www.w3.org/2000/svg">
<path d="M18.3375 3.29995H15.45V2.66245C15.45 1.53745 14.55 0.637451 13.425 0.637451H10.5375C9.41245 0.637451 8.51245 1.53745 8.51245 2.66245V3.29995H5.62495C4.53745 3.29995 3.63745 4.19995 3.63745 5.28745V6.41245C3.63745 7.23745 4.12495 7.91245 4.83745 8.21245L5.43745 21.1874C5.51245 22.4249 6.48745 23.3624 7.72495 23.3624H16.1625C17.4 23.3624 18.4125 22.3874 18.45 21.1874L19.125 8.17495C19.8375 7.87495 20.325 7.16245 20.325 6.37495V5.24995C20.325 4.19995 19.425 3.29995 18.3375 3.29995ZM10.2375 2.66245C10.2375 2.47495 10.3875 2.32495 10.575 2.32495H13.4625C13.65 2.32495 13.8 2.47495 13.8 2.66245V3.29995H10.275V2.66245H10.2375ZM5.36245 5.28745C5.36245 5.13745 5.47495 4.98745 5.66245 4.98745H18.3375C18.4875 4.98745 18.6375 5.09995 18.6375 5.28745V6.41245C18.6375 6.56245 18.525 6.71245 18.3375 6.71245H5.66245C5.51245 6.71245 5.36245 6.59995 5.36245 6.41245V5.28745V5.28745ZM16.2 21.6749H7.79995C7.46245 21.6749 7.19995 21.4124 7.19995 21.1124L6.59995 8.39995H17.4375L16.8375 21.1124C16.8 21.4124 16.5375 21.6749 16.2 21.6749Z" fill="black"/>
<path d="M12 12.1499C11.55 12.1499 11.1375 12.5249 11.1375 13.0124V17.7749C11.1375 18.2249 11.5125 18.6374 12 18.6374C12.45 18.6374 12.8625 18.2624 12.8625 17.7749V13.0124C12.8625 12.5249 12.45 12.1499 12 12.1499Z" fill="black"/>
<path d="M14.9999 12.9001C14.5124 12.8626 14.1374 13.2001 14.0999 13.6876L13.8749 16.9876C13.8374 17.4376 14.1749 17.8501 14.6624 17.8876C14.6999 17.8876 14.6999 17.8876 14.7374 17.8876C15.1874 17.8876 15.5624 17.5501 15.5624 17.1001L15.7874 13.8001C15.7874 13.3126 15.4499 12.9376 14.9999 12.9001Z" fill="black"/>
<path d="M8.96245 12.9001C8.51245 12.9376 8.13745 13.3501 8.17495 13.8001L8.43745 17.1001C8.47495 17.5501 8.84995 17.8876 9.26245 17.8876C9.29995 17.8876 9.29995 17.8876 9.33745 17.8876C9.78745 17.8501 10.1625 17.4376 10.125 16.9876L9.86245 13.6876C9.86245 13.2001 9.44995 12.8626 8.96245 12.9001Z" fill="black"/>
</svg>
