<svg width="24" height="24" viewBox="0 0 24 24" fill="none" xmlns="http://www.w3.org/2000/svg">
<g clip-path="url(#clip0_14_1045)">
<path d="M22.1249 17.2126C21.92 16.4898 21.4389 15.8766 20.7857 15.5054C20.1325 15.1343 19.3595 15.0349 18.6337 15.2288C17.3099 15.6038 15.4949 16.1588 14.1337 16.5526C14.2583 16.1585 14.2437 15.7335 14.0924 15.3488C13.7474 14.4901 12.7912 14.1076 11.9924 14.1076H8.24992C7.86734 14.0855 7.50775 13.9177 7.24492 13.6388C6.84595 13.2725 6.32408 13.0691 5.78242 13.0688H2.74117C2.10096 13.0826 1.49233 13.3497 1.04876 13.8116C0.605184 14.2734 0.36286 14.8923 0.374922 15.5326V20.3551C0.367454 20.679 0.423933 21.0011 0.541127 21.3032C0.658321 21.6052 0.833928 21.8811 1.0579 22.1152C1.28187 22.3493 1.5498 22.5369 1.84636 22.6673C2.14292 22.7977 2.46228 22.8683 2.78617 22.8751H6.43867C6.90777 22.8729 7.36574 22.732 7.75492 22.4701L7.79992 22.4926C8.86348 23.079 10.0579 23.3873 11.2724 23.3888C11.9948 23.3921 12.7134 23.2833 13.4024 23.0663L20.1899 21.0001H20.2349C20.6078 20.8811 20.9533 20.6893 21.2515 20.4359C21.5497 20.1824 21.7946 19.8723 21.9722 19.5236C22.1497 19.1748 22.2562 18.7943 22.2857 18.404C22.3151 18.0138 22.2669 17.6216 22.1437 17.2501L22.1249 17.2126ZM2.78617 21.3751C2.65921 21.3684 2.53483 21.3366 2.4202 21.2817C2.30557 21.2267 2.20294 21.1496 2.11824 21.0548C2.03354 20.96 1.96843 20.8493 1.92667 20.7292C1.88491 20.6092 1.86733 20.482 1.87492 20.3551V15.5326C1.86364 15.2903 1.94822 15.0534 2.11034 14.873C2.27246 14.6926 2.49909 14.5834 2.74117 14.5688H5.77867C5.94622 14.5688 6.10735 14.6333 6.22867 14.7488C6.34822 14.8531 6.47341 14.9508 6.60367 15.0413V21.3451C6.55132 21.3506 6.49853 21.3506 6.44617 21.3451L2.78617 21.3751ZM19.7287 19.5676L12.9562 21.6226C12.4115 21.794 11.8435 21.88 11.2724 21.8776C10.3079 21.8759 9.35952 21.6295 8.51617 21.1613L8.09617 20.9401V15.6001H8.24617H11.9999C12.1337 15.5874 12.2685 15.6082 12.3922 15.6605C12.5159 15.7129 12.6247 15.7952 12.7087 15.9001C12.7687 16.0538 12.6637 16.5113 11.8762 17.2613L11.4449 17.6701L11.7412 18.1801C12.0637 18.7501 12.0637 18.7501 15.8512 17.6251C17.4599 17.1563 19.0649 16.6763 19.0649 16.6763C19.4122 16.5951 19.7775 16.6522 20.0833 16.8356C20.3892 17.019 20.6117 17.3143 20.7037 17.6588C20.7709 17.8472 20.7987 18.0472 20.7855 18.2467C20.7724 18.4462 20.7184 18.6409 20.627 18.8187C20.5357 18.9965 20.4088 19.1537 20.2543 19.2806C20.0998 19.4075 19.9209 19.5013 19.7287 19.5563V19.5676Z" fill="black"/>
<path d="M23.5951 3.83997C23.5715 3.55672 23.4487 3.29086 23.2485 3.08919C23.0482 2.88752 22.7831 2.76297 22.5001 2.73747C21.5663 2.66622 19.8188 2.73747 18.5963 3.94122C18.3907 4.14582 18.2094 4.3736 18.0563 4.61997C17.9599 3.70266 17.5932 2.83468 17.0026 2.12622C15.8776 0.858721 14.0026 0.644971 13.0051 0.626221C12.7012 0.629287 12.4097 0.746806 12.1886 0.955331C11.9676 1.16386 11.8333 1.44805 11.8126 1.75122C11.7338 2.82372 11.7713 4.81497 12.8888 6.06747C13.8151 7.10622 15.2401 7.31622 16.2638 7.31622C16.5143 7.31796 16.7647 7.30544 17.0138 7.27872V12.7837C17.0138 12.9826 17.0928 13.1734 17.2335 13.3141C17.3741 13.4547 17.5649 13.5337 17.7638 13.5337C17.9627 13.5337 18.1535 13.4547 18.2941 13.3141C18.4348 13.1734 18.5138 12.9826 18.5138 12.7837V9.40872C19.5788 9.38997 21.3563 9.17997 22.4626 8.08122C23.6551 6.85872 23.6851 4.89747 23.5951 3.83997ZM16.5938 5.81997C15.8101 5.86872 14.6138 5.77497 13.9913 5.06997C13.2938 4.29372 13.2413 2.84622 13.2751 2.13372C13.9913 2.17872 15.1988 2.36997 15.8663 3.11622C16.5338 3.86247 16.6238 5.11497 16.5938 5.81997ZM21.3751 7.03122C20.6513 7.75122 19.3238 7.90122 18.5288 7.92372C18.6301 7.11372 18.9038 5.74872 19.6538 5.00247C20.3213 4.33872 21.3338 4.21872 21.9863 4.21872H22.1251C22.1476 4.89747 22.1251 6.28497 21.3751 7.03122Z" fill="black"/>
</g>
<defs>
<clipPath id="clip0_14_1045">
<rect width="24" height="24" fill="white"/>
</clipPath>
</defs>
</svg>
