<svg width="24" height="24" viewBox="0 0 24 24" fill="none" xmlns="http://www.w3.org/2000/svg">
<path d="M23.25 7.9874L21.5625 2.7374C21.2625 1.7624 20.325 1.0874 19.3125 1.0874H4.91255C3.90005 1.0874 3.00005 1.7249 2.66255 2.6624L0.787549 7.9499C0.712549 8.1749 0.675049 8.3999 0.675049 8.6624V20.0249C0.675049 21.6374 1.98755 22.9124 3.56255 22.9124H20.475C22.0875 22.9124 23.3625 21.5999 23.3625 20.0249V8.6249C23.3625 8.4374 23.325 8.2124 23.25 7.9874ZM19.9501 3.2624L21.3375 7.6124H12.8625V2.7749H19.3125C19.575 2.7749 19.875 2.9624 19.9501 3.2624ZM4.23755 3.2249C4.35005 2.9624 4.61255 2.7749 4.87505 2.7749H11.1375V7.6124H2.70005L4.23755 3.2249ZM20.4375 21.2249H3.56255C2.88755 21.2249 2.36255 20.6999 2.36255 20.0249V9.2999H21.675V20.0249C21.675 20.6999 21.1125 21.2249 20.4375 21.2249Z" fill="black"/>
</svg>
